<svg xmlns="http://www.w3.org/2000/svg" width="308.874" height="72">
    <g data-name="full logo">
        <path data-name="패스 10" d="m81.105 49.316 2.512 4.239h1.812v-9.62h-1.625v3.356c0 1.468.04 2.711.155 4h-.028a25.409 25.409 0 0 0-1.643-3.225l-2.481-4.126h-2v9.62h1.613v-3.441c0-1.582-.014-2.851-.087-4.094l.04-.016a31.653 31.653 0 0 0 1.729 3.312"/>
        <path data-name="패스 11" d="M91.075 51.114a1.344 1.344 0 0 1-.056.386 1.418 1.418 0 0 1-1.369.955.923.923 0 0 1-1-1c0-1.056 1.186-1.327 2.427-1.3zm.115 1.669.115.772h1.583a11.656 11.656 0 0 1-.1-1.671v-2.511a2.6 2.6 0 0 0-2.871-2.926 4.992 4.992 0 0 0-2.509.613l.34 1.142a3.711 3.711 0 0 1 1.87-.513c1.229 0 1.412.756 1.412 1.215v.113c-2.566-.016-4.12.871-4.12 2.624a2.061 2.061 0 0 0 2.182 2.069 2.581 2.581 0 0 0 2.057-.927z"/>
        <path data-name="패스 12" d="M98.16 52.186a2.132 2.132 0 0 1-.686.084c-.672 0-.9-.442-.9-1.285v-3.068h1.669v-1.311h-1.669V44.82l-1.711.5v1.287h-1v1.311h1v3.27a2.768 2.768 0 0 0 .541 1.94 2.031 2.031 0 0 0 1.512.585 3.779 3.779 0 0 0 1.271-.187z"/>
        <path data-name="패스 13" d="M100.463 43.705a.939.939 0 0 0-.985.957.985.985 0 0 0 1.969 0 .935.935 0 0 0-.983-.957"/>
        <path data-name="사각형 2" d="M99.579 46.606h1.77v6.949h-1.77z"/>
        <path data-name="패스 14" d="M106.351 47.732c1.2 0 1.683 1.243 1.683 2.327 0 1.4-.7 2.383-1.7 2.383-1.068 0-1.725-1.011-1.725-2.355 0-1.154.5-2.355 1.741-2.355m-.072 5.98a3.442 3.442 0 0 0 3.569-3.694 3.336 3.336 0 0 0-3.455-3.569 3.433 3.433 0 0 0-3.6 3.682 3.361 3.361 0 0 0 3.483 3.581"/>
        <path data-name="패스 15" d="M115.117 46.447a2.506 2.506 0 0 0-2.21 1.2h-.044l-.085-1.042h-1.54c.04.6.056 1.271.056 2.069v4.88h1.77v-4.082a1.807 1.807 0 0 1 .07-.569 1.473 1.473 0 0 1 1.369-1.027c.955 0 1.325.754 1.325 1.753v3.925h1.76V49.43c0-2.2-1.259-2.984-2.471-2.984"/>
        <path data-name="패스 16" d="M123.147 51.114a1.234 1.234 0 0 1-.056.388 1.422 1.422 0 0 1-1.372.955.92.92 0 0 1-1-1c0-1.058 1.184-1.327 2.425-1.3zm1.713-1.741a2.6 2.6 0 0 0-2.868-2.926 4.992 4.992 0 0 0-2.511.615l.342 1.14a3.685 3.685 0 0 1 1.866-.513c1.231 0 1.418.756 1.418 1.215v.113c-2.572-.016-4.124.871-4.124 2.626a2.061 2.061 0 0 0 2.18 2.069 2.579 2.579 0 0 0 2.057-.929h.042l.115.772h1.585a11 11 0 0 1-.1-1.671z"/>
        <path data-name="사각형 3" d="M126.721 43.425h1.77v10.13h-1.77z"/>
        <path data-name="패스 17" d="m140.603 43.935-1.329 3.857a45.38 45.38 0 0 0-.953 3.348h-.046a48.152 48.152 0 0 0-.881-3.334l-1.259-3.871h-2.313l-.639 9.62h1.639l.215-3.867c.072-1.313.131-2.839.171-4.112h.026c.257 1.216.6 2.528.971 3.756l1.287 4.11h1.353l1.4-4.166a50.74 50.74 0 0 0 1.14-3.7h.04c-.014 1.315.056 2.813.117 4.054l.185 3.925h1.711l-.557-9.62z"/>
        <path data-name="패스 18" d="M147.563 53.712a2.515 2.515 0 0 0 2.226-1.213h.028l.087 1.056h1.54a43.535 43.535 0 0 1-.056-2.081v-4.868h-1.758v4.195a1.568 1.568 0 0 1-.1.545 1.481 1.481 0 0 1-1.343.939c-.927 0-1.3-.742-1.3-1.9v-3.782h-1.755v4.082c0 2.27 1.154 3.024 2.425 3.024"/>
        <path data-name="패스 19" d="M157.806 51.53c-.016-1.028-.6-1.669-1.858-2.125-.885-.316-1.21-.529-1.21-.971s.342-.73.969-.73a3.157 3.157 0 0 1 1.472.4l.34-1.239a4.04 4.04 0 0 0-1.842-.416c-1.613 0-2.624.957-2.624 2.184-.014.814.555 1.556 1.91 2.027.859.3 1.142.541 1.142 1.013 0 .454-.342.768-1.11.768a3.881 3.881 0 0 1-1.785-.5l-.344 1.271a4.477 4.477 0 0 0 2.113.5c1.838 0 2.827-.927 2.827-2.182"/>
        <path data-name="패스 20" d="M160.493 49.345a1.716 1.716 0 0 1 1.613-1.7 1.49 1.49 0 0 1 1.438 1.7zm4.709.487c0-1.528-.728-3.382-3-3.382a3.441 3.441 0 0 0-3.4 3.738 3.3 3.3 0 0 0 3.583 3.523 6.471 6.471 0 0 0 2.423-.44l-.254-1.213a5.248 5.248 0 0 1-1.928.314 1.888 1.888 0 0 1-2.139-1.8h4.651a4.349 4.349 0 0 0 .058-.742"/>
        <path data-name="패스 21" d="M172.847 51.472v-4.866h-1.757v4.195a1.611 1.611 0 0 1-.1.543 1.474 1.474 0 0 1-1.341.941c-.927 0-1.3-.742-1.3-1.9v-3.78h-1.754v4.08c0 2.27 1.154 3.024 2.429 3.024a2.511 2.511 0 0 0 2.222-1.212h.028l.086 1.058h1.539a44.36 44.36 0 0 1-.052-2.083"/>
        <path data-name="패스 22" d="M182.675 46.447a2.3 2.3 0 0 0-1.4.416 2.649 2.649 0 0 0-.859.869h-.028a2 2 0 0 0-1.924-1.285 2.4 2.4 0 0 0-2.141 1.186h-.042l-.072-1.027h-1.514c.044.6.058 1.271.058 2.069v4.88h1.713v-4.11a1.49 1.49 0 0 1 .1-.571 1.367 1.367 0 0 1 1.255-1c.814 0 1.2.684 1.2 1.653v4.026h1.711v-4.168a2.31 2.31 0 0 1 .09-.583 1.333 1.333 0 0 1 1.225-.927c.842 0 1.243.684 1.243 1.838v3.841h1.713V49.46c0-2.226-1.174-3.014-2.326-3.014"/>
        <path data-name="패스 23" d="M194.621 50.058c0 1.4-.7 2.383-1.7 2.383-1.07 0-1.729-1.011-1.729-2.355 0-1.154.5-2.355 1.743-2.355 1.2 0 1.687 1.243 1.687 2.327m-5.238.072a3.358 3.358 0 0 0 3.479 3.581 3.444 3.444 0 0 0 3.571-3.694 3.335 3.335 0 0 0-3.455-3.569 3.431 3.431 0 0 0-3.6 3.682"/>
        <path data-name="패스 24" d="M198.08 46.606h-.943v1.311h.943v5.638h1.755v-5.638h1.512v-1.311h-1.526v-.358c0-.857.3-1.582 1.168-1.582a2.068 2.068 0 0 1 .744.127l.127-1.355a3.364 3.364 0 0 0-1.126-.171 2.661 2.661 0 0 0-1.812.67 3.256 3.256 0 0 0-.842 2.371z"/>
        <path data-name="패스 25" d="m84.985 57.86-1.327 3.855c-.37 1.126-.7 2.31-.955 3.354h-.041a48.924 48.924 0 0 0-.883-3.342l-1.255-3.867h-2.315l-.641 9.62h1.641l.213-3.867c.075-1.313.131-2.841.173-4.112h.03c.255 1.213.6 2.528.967 3.754l1.287 4.11h1.355l1.4-4.166a49.666 49.666 0 0 0 1.14-3.7h.044c-.016 1.315.056 2.811.112 4.054l.187 3.925h1.711l-.555-9.62z"/>
        <path data-name="패스 26" d="M92.722 66.367c-1.074 0-1.729-1.016-1.729-2.355 0-1.158.5-2.357 1.739-2.357 1.2 0 1.687 1.243 1.687 2.329 0 1.4-.7 2.383-1.7 2.383m.056-6a3.433 3.433 0 0 0-3.6 3.682 3.361 3.361 0 0 0 3.483 3.583 3.445 3.445 0 0 0 3.567-3.7 3.335 3.335 0 0 0-3.453-3.569"/>
        <path data-name="패스 27" d="M102.332 64.469a1.956 1.956 0 0 1-.056.511 1.548 1.548 0 0 1-1.512 1.243c-1.114 0-1.743-.927-1.743-2.2 0-1.3.629-2.3 1.754-2.3a1.537 1.537 0 0 1 1.516 1.243 2.528 2.528 0 0 1 .042.458zm1.753-7.122h-1.753v3.939h-.028a2.219 2.219 0 0 0-1.957-.915c-1.671 0-3.125 1.383-3.109 3.71 0 2.142 1.311 3.555 2.968 3.555a2.5 2.5 0 0 0 2.268-1.257h.03l.07 1.1h1.571a35.678 35.678 0 0 1-.06-1.955z"/>
        <path data-name="패스 28" d="M107.22 63.271a1.72 1.72 0 0 1 1.615-1.7 1.5 1.5 0 0 1 1.442 1.7zm1.713-2.9a3.44 3.44 0 0 0-3.394 3.738 3.3 3.3 0 0 0 3.581 3.529 6.532 6.532 0 0 0 2.425-.444l-.255-1.213a5.242 5.242 0 0 1-1.926.314 1.891 1.891 0 0 1-2.143-1.8h4.653a4.358 4.358 0 0 0 .058-.744c0-1.526-.726-3.382-3-3.382"/>
        <path data-name="패스 29" d="M114.936 61.855h-.058l-.056-1.327h-1.528c.044.629.058 1.3.058 2.242v4.709h1.755v-3.6a3.253 3.253 0 0 1 .056-.543 1.549 1.549 0 0 1 1.569-1.327 2.452 2.452 0 0 1 .515.056v-1.653a1.839 1.839 0 0 0-.412-.044 2.071 2.071 0 0 0-1.9 1.484"/>
        <path data-name="패스 30" d="M122.262 60.371a2.5 2.5 0 0 0-2.212 1.2h-.042l-.089-1.042h-1.54c.044.6.058 1.271.058 2.069v4.882h1.77v-4.084a1.87 1.87 0 0 1 .07-.569 1.477 1.477 0 0 1 1.37-1.028c.959 0 1.329.756 1.329 1.753v3.927h1.754v-4.126c0-2.2-1.257-2.982-2.467-2.982"/>
        <path data-name="패스 31" d="M133.249 65.036a1.279 1.279 0 0 1-.058.386 1.421 1.421 0 0 1-1.369.955.922.922 0 0 1-1-1c0-1.058 1.186-1.327 2.427-1.3zm1.711-1.739a2.6 2.6 0 0 0-2.867-2.928 5.006 5.006 0 0 0-2.512.613l.342 1.142a3.681 3.681 0 0 1 1.87-.513c1.227 0 1.414.758 1.414 1.215v.113c-2.568-.012-4.126.871-4.126 2.626a2.065 2.065 0 0 0 2.186 2.069 2.58 2.58 0 0 0 2.053-.925h.044l.113.768h1.584a11.283 11.283 0 0 1-.1-1.669z"/>
        <path data-name="패스 32" d="M140.648 60.371a2.506 2.506 0 0 0-2.212 1.2h-.042l-.086-1.042h-1.54c.042.6.056 1.271.056 2.069v4.882h1.77v-4.084a1.809 1.809 0 0 1 .072-.569 1.47 1.47 0 0 1 1.37-1.028c.959 0 1.329.756 1.329 1.753v3.927h1.754v-4.126c0-2.2-1.257-2.982-2.467-2.982"/>
        <path data-name="패스 33" d="M149.646 64.469a1.964 1.964 0 0 1-.054.511 1.549 1.549 0 0 1-1.514 1.243c-1.112 0-1.741-.927-1.741-2.2 0-1.3.629-2.3 1.755-2.3a1.539 1.539 0 0 1 1.514 1.243 2.535 2.535 0 0 1 .04.458zm1.756-7.122h-1.756v3.939h-.026a2.216 2.216 0 0 0-1.956-.915c-1.671 0-3.127 1.383-3.109 3.71 0 2.142 1.311 3.555 2.968 3.555a2.5 2.5 0 0 0 2.268-1.257h.03l.068 1.1h1.57a35.926 35.926 0 0 1-.058-1.955z"/>
        <path data-name="패스 34" d="M161.033 59.157a4.688 4.688 0 0 1 1.884.372l.384-1.4a5.5 5.5 0 0 0-2.339-.43 4.839 4.839 0 0 0-5.138 5.081 4.55 4.55 0 0 0 4.909 4.854 6.006 6.006 0 0 0 2.485-.444l-.288-1.384a4.88 4.88 0 0 1-1.91.356 3.157 3.157 0 0 1-3.354-3.469 3.2 3.2 0 0 1 3.366-3.539"/>
        <path data-name="패스 35" d="M167.523 66.367c-1.074 0-1.731-1.016-1.731-2.355 0-1.158.5-2.357 1.742-2.357 1.2 0 1.687 1.243 1.687 2.329 0 1.4-.7 2.383-1.7 2.383m.056-6a3.432 3.432 0 0 0-3.6 3.682 3.36 3.36 0 0 0 3.483 3.583 3.444 3.444 0 0 0 3.565-3.7 3.334 3.334 0 0 0-3.451-3.569"/>
        <path data-name="패스 36" d="M176.306 60.371a2.5 2.5 0 0 0-2.212 1.2h-.044l-.082-1.043h-1.544c.044.6.056 1.271.056 2.069v4.882h1.771v-4.084a1.818 1.818 0 0 1 .07-.569 1.474 1.474 0 0 1 1.374-1.028c.953 0 1.323.756 1.323 1.753v3.927h1.755v-4.126c0-2.2-1.255-2.982-2.467-2.982"/>
        <path data-name="패스 37" d="m182.593 58.745-1.715.5v1.283h-1v1.313h1v3.268a2.781 2.781 0 0 0 .543 1.94 2.04 2.04 0 0 0 1.514.587 3.83 3.83 0 0 0 1.271-.185l-.03-1.343a2.176 2.176 0 0 1-.682.087c-.672 0-.9-.444-.9-1.285v-3.068h1.669v-1.313h-1.669z"/>
        <path data-name="패스 38" d="M186.752 63.271a1.717 1.717 0 0 1 1.613-1.7 1.491 1.491 0 0 1 1.438 1.7zm1.711-2.9a3.442 3.442 0 0 0-3.4 3.738 3.3 3.3 0 0 0 3.585 3.529 6.543 6.543 0 0 0 2.428-.449l-.258-1.213a5.25 5.25 0 0 1-1.926.314 1.886 1.886 0 0 1-2.139-1.8h4.653a4.632 4.632 0 0 0 .056-.744c0-1.526-.73-3.382-3-3.382"/>
        <path data-name="패스 39" d="M200.803 60.371a2.343 2.343 0 0 0-1.4.414 2.637 2.637 0 0 0-.853.871h-.028a2.009 2.009 0 0 0-1.928-1.285 2.406 2.406 0 0 0-2.141 1.184h-.042l-.07-1.027h-1.511c.04.6.056 1.271.056 2.069v4.882h1.711v-4.112a1.475 1.475 0 0 1 .1-.569 1.369 1.369 0 0 1 1.257-1c.81 0 1.2.686 1.2 1.657v4.024h1.713v-4.168a2.372 2.372 0 0 1 .087-.585 1.335 1.335 0 0 1 1.225-.927c.842 0 1.243.686 1.243 1.842v3.839h1.708v-4.1c0-2.226-1.17-3.012-2.326-3.012"/>
        <path data-name="패스 40" d="M208.349 66.279a1.586 1.586 0 0 1-1.542-1.227 1.831 1.831 0 0 1-.056-.485v-1.078a1.522 1.522 0 0 1 .07-.438 1.635 1.635 0 0 1 1.571-1.3c1.124 0 1.725 1 1.725 2.23 0 1.367-.655 2.294-1.767 2.294m.627-5.908a2.7 2.7 0 0 0-2.383 1.229h-.028l-.087-1.072h-1.542c.028.657.056 1.4.056 2.312v7.462h1.757v-3.589h.026a2.291 2.291 0 0 0 1.957.927c1.585 0 3.167-1.214 3.167-3.726 0-2.17-1.327-3.539-2.924-3.539"/>
        <path data-name="패스 41" d="M216.449 66.367c-1.07 0-1.727-1.016-1.727-2.355 0-1.158.5-2.357 1.739-2.357 1.2 0 1.685 1.243 1.685 2.329 0 1.4-.7 2.383-1.7 2.383m.056-6a3.431 3.431 0 0 0-3.6 3.682 3.362 3.362 0 0 0 3.485 3.583 3.444 3.444 0 0 0 3.565-3.7 3.336 3.336 0 0 0-3.455-3.569"/>
        <path data-name="패스 42" d="M222.993 61.855h-.056l-.058-1.327h-1.526c.042.629.054 1.3.054 2.242v4.709h1.759v-3.6a3.048 3.048 0 0 1 .056-.543 1.546 1.546 0 0 1 1.568-1.327 2.482 2.482 0 0 1 .515.056v-1.653a1.882 1.882 0 0 0-.414-.044 2.071 2.071 0 0 0-1.9 1.484"/>
        <path data-name="패스 43" d="M230.052 65.036a1.411 1.411 0 0 1-.054.386 1.43 1.43 0 0 1-1.373.955.921.921 0 0 1-1-1c0-1.058 1.184-1.327 2.427-1.3zm1.711-1.739a2.6 2.6 0 0 0-2.867-2.928 5.012 5.012 0 0 0-2.512.613l.342 1.142a3.687 3.687 0 0 1 1.87-.513c1.227 0 1.414.758 1.414 1.215v.113c-2.57-.012-4.126.871-4.126 2.626a2.064 2.064 0 0 0 2.184 2.069 2.582 2.582 0 0 0 2.055-.925h.044l.113.768h1.582a11.893 11.893 0 0 1-.1-1.669z"/>
        <path data-name="패스 44" d="M235.207 61.855h-.056l-.056-1.327h-1.528c.044.629.056 1.3.056 2.242v4.709h1.758v-3.6a3.047 3.047 0 0 1 .056-.543 1.548 1.548 0 0 1 1.57-1.327 2.451 2.451 0 0 1 .513.056v-1.653a1.871 1.871 0 0 0-.414-.044 2.075 2.075 0 0 0-1.9 1.484"/>
        <path data-name="패스 45" d="M242.175 64.238c-.127.461-.251.973-.37 1.371h-.04c-.1-.4-.241-.927-.388-1.355l-1.255-3.726h-1.926l2.544 6.38a.778.778 0 0 1 .1.342.742.742 0 0 1-.115.316 3.045 3.045 0 0 1-.959 1.1 2.945 2.945 0 0 1-1.028.487l.4 1.484a3.534 3.534 0 0 0 1.84-.9c.826-.714 1.47-1.87 2.425-4.468l1.741-4.737h-1.884z"/>
        <path data-name="패스 46" d="m251.435 63.427.742-2.371c.169-.573.314-1.241.454-1.8h.03c.143.557.3 1.213.485 1.8l.754 2.371zm.157-5.568-3.083 9.62h1.812l.827-2.725h3.056l.869 2.725h1.886l-3.127-9.62z"/>
        <path data-name="패스 47" d="M259.745 61.855h-.06l-.054-1.327h-1.526c.042.629.056 1.3.056 2.242v4.709h1.754v-3.6a2.841 2.841 0 0 1 .058-.543 1.545 1.545 0 0 1 1.566-1.327 2.473 2.473 0 0 1 .517.056v-1.653a1.856 1.856 0 0 0-.414-.044 2.071 2.071 0 0 0-1.9 1.484"/>
        <path data-name="패스 48" d="m265.583 58.745-1.711.5v1.283h-1v1.313h1v3.268a2.772 2.772 0 0 0 .541 1.94 2.035 2.035 0 0 0 1.512.587 3.829 3.829 0 0 0 1.271-.185l-.028-1.343a2.179 2.179 0 0 1-.686.087c-.668 0-.9-.444-.9-1.285v-3.068h1.669v-1.313h-1.669z"/>
        <path data-name="패스 49" d="m267.67 69.205 1.2-.113a18.2 18.2 0 0 0 1.6-3.8l-1.841.147a23.268 23.268 0 0 1-.955 3.764"/>
        <path data-name="패스 50" d="M282.062 57.86h-2.17l-2.512 3.382c-.231.328-.472.67-.7 1.042h-.046V57.86h-1.743v9.62h1.743v-3.382l.857-1.029 2.727 4.412h2.057l-3.527-5.522z"/>
        <path data-name="패스 51" d="M286.101 66.367c-1.07 0-1.727-1.016-1.727-2.355 0-1.158.5-2.357 1.743-2.357 1.2 0 1.683 1.243 1.683 2.329 0 1.4-.7 2.383-1.7 2.383m.058-6a3.433 3.433 0 0 0-3.6 3.682 3.365 3.365 0 0 0 3.485 3.583 3.444 3.444 0 0 0 3.569-3.7 3.336 3.336 0 0 0-3.455-3.569"/>
        <path data-name="패스 52" d="M292.643 61.855h-.054l-.06-1.327h-1.522c.042.629.058 1.3.058 2.242v4.709h1.742v-3.6a3.03 3.03 0 0 1 .058-.543 1.55 1.55 0 0 1 1.573-1.327 2.481 2.481 0 0 1 .513.056v-1.653a1.869 1.869 0 0 0-.414-.044 2.072 2.072 0 0 0-1.9 1.484"/>
        <path data-name="패스 53" d="M297.257 63.271a1.717 1.717 0 0 1 1.613-1.7 1.494 1.494 0 0 1 1.44 1.7zm1.711-2.9a3.442 3.442 0 0 0-3.4 3.738 3.3 3.3 0 0 0 3.583 3.529 6.556 6.556 0 0 0 2.427-.444l-.26-1.213a5.235 5.235 0 0 1-1.927.314 1.885 1.885 0 0 1-2.137-1.8h4.651a4.15 4.15 0 0 0 .058-.744c0-1.526-.732-3.382-3-3.382"/>
        <path data-name="패스 54" d="M307.065 65.036a1.278 1.278 0 0 1-.058.386 1.423 1.423 0 0 1-1.369.955.921.921 0 0 1-1-1c0-1.056 1.184-1.325 2.427-1.3zm1.711.772v-2.511a2.6 2.6 0 0 0-2.868-2.928 5 5 0 0 0-2.511.613l.342 1.142a3.674 3.674 0 0 1 1.87-.513c1.226 0 1.409.758 1.409 1.215v.113c-2.566-.012-4.122.871-4.122 2.626a2.063 2.063 0 0 0 2.184 2.069 2.585 2.585 0 0 0 2.055-.925h.044l.111.768h1.584a11.32 11.32 0 0 1-.1-1.669"/>
        <path data-name="패스 55" d="M40.506 56.031h15.853l-7.927-20.036z"/>
        <path data-name="패스 56" d="M61.704 67.361a.693.693 0 0 1-.3.058.8.8 0 0 1-.75-.507l-3.664-9.276H39.87l-3.67 9.276a.8.8 0 0 1-1.49-.587l5.819-14.716v-24.05L29.984 49.704a.8.8 0 0 1-1.444 0L17.999 27.559v10.9a12.907 12.907 0 0 1 1.733-.006.801.801 0 0 1-.093 1.6 13.492 13.492 0 0 0-.7-.022c-.312 0-.627.016-.945.042v9.892a.804.804 0 0 1-1.607 0v-9.648c-.265.056-.525.125-.792.2A11.73 11.73 0 0 0 7.21 51.752a11.929 11.929 0 0 0 .485 3.346 11.728 11.728 0 0 0 11.229 8.391A11.522 11.522 0 0 0 22.262 63a11.7 11.7 0 0 0 7.9-7.874.8.8 0 1 1 1.534.459 13.324 13.324 0 1 1-16.549-16.6 12.542 12.542 0 0 1 1.242-.3V24.193L9.367 9.425v22.4a.8.8 0 0 1-1.6 0V5.886a.8.8 0 0 1 1.522-.344l11.347 23.825L31.983 5.542a.8.8 0 0 1 1.52.344v25.939a.8.8 0 1 1-1.6 0v-22.4l-10.382 21.8 7.748 16.273L40.61 23.675a.8.8 0 0 1 1.524.342v23.541l5.554-14.042a.8.8 0 0 1 1.494 0l12.971 32.809a.8.8 0 0 1-.45 1.036M47.977 28.8V17.279h-8.639V0H27.464l-6.793 14.2h-.1L13.787 0H1.91v36h6.467a18.962 18.962 0 0 0 21.12 31.5L27.675 72h11.9l2.272-5.758h13.169L57.268 72h12.885L53.001 28.8z"/>
        <path data-name="패스 57" d="M86.786 25.344h-8.271v3.33h16.181v8.594h3.794V25.344h-7.915v-5.55h13.034v-3.328h-6.607a24.772 24.772 0 0 0 1.1-4.331 37.045 37.045 0 0 0 .5-6.119V4.544H78.69v3.33h16.113c0 .571-.038 1.223-.107 1.953s-.179 1.5-.322 2.308a24.866 24.866 0 0 1-.557 2.435c-.185.664-.4 1.293-.623 1.9H73.679v3.328h13.107z"/>
        <path data-name="사각형 4" d="M129.373 3.571h3.788v18.576h-3.788z"/>
        <path data-name="패스 58" d="M129.369 33.938h-11.1v-3.04h11.1zm-11.1-9.807h-3.8v11.707a1.265 1.265 0 0 0 1.434 1.43h17.251V24.131h-3.788v3.473h-11.1z"/>
        <path data-name="패스 59" d="M109.427 21.576h4.83c.973 0 2.033-.032 3.167-.092s2.246-.135 3.332-.229 2.122-.215 3.109-.36a16.466 16.466 0 0 0 2.526-.535l-.537-3.151a22.006 22.006 0 0 1-2.256.442c-.857.137-1.737.245-2.628.328s-1.76.147-2.594.2-1.565.07-2.188.07h-4.4V14.92h10.452V4.967h-14.247v3.334h10.45v3.319h-10.45v8.524a1.263 1.263 0 0 0 1.434 1.43"/>
        <path data-name="패스 60" d="M144.416 18.041a3.3 3.3 0 0 1 .947-2.383 3.257 3.257 0 0 1 2.451-.983 3.3 3.3 0 0 1 3.438 3.366 3.379 3.379 0 0 1-.251 1.287 3.183 3.183 0 0 1-.7 1.056 3.345 3.345 0 0 1-1.092.716 3.612 3.612 0 0 1-1.4.265 3.295 3.295 0 0 1-3.4-3.324m6.282 5.976a6.542 6.542 0 0 0 3.688-3.455 6.122 6.122 0 0 0 .519-2.522 6.367 6.367 0 0 0-.519-2.562 6.166 6.166 0 0 0-1.454-2.073 6.735 6.735 0 0 0-2.234-1.383 8.052 8.052 0 0 0-2.883-.5 7.782 7.782 0 0 0-2.827.5 7.059 7.059 0 0 0-2.24 1.383 6.141 6.141 0 0 0-1.466 2.073 6.366 6.366 0 0 0-.517 2.562 6.121 6.121 0 0 0 .517 2.522 6.452 6.452 0 0 0 1.472 2.059 6.785 6.785 0 0 0 2.24 1.4 7.783 7.783 0 0 0 2.827.5 8.053 8.053 0 0 0 2.883-.5"/>
        <path data-name="패스 61" d="M157.121 7.186h-7.41v-4.08h-3.8v4.08h-7.339v3.185h18.546z"/>
        <path data-name="패스 62" d="M166.362 33.116h-15.468v-6.155h-3.792v8.053a1.265 1.265 0 0 0 1.434 1.43h17.826z"/>
        <path data-name="패스 63" d="M156.881 15.277h5.011v3.113h-5.011v3.292h5.011v6.66h3.79V3.572h-3.79v8.409h-5.011z"/>
        <path data-name="패스 64" d="M191.297 16.387h3.434v15.966h3.69V3.573h-3.69v9.557h-3.434V3.999h-3.691v27.317h3.688z"/>
        <path data-name="패스 65" d="M172.883 24.55h2.3c1.88-.026 3.756-.092 5.614-.2a30.832 30.832 0 0 0 5.126-.7l-.543-3.149a21.354 21.354 0 0 1-3.917.535q-2.13.112-4.174.179h-2.039V9.081h8.2V5.755h-12v17.363a1.266 1.266 0 0 0 1.432 1.432"/>
        <path data-name="사각형 5" d="M226.072 3.573h3.79v28.781h-3.79z"/>
        <path data-name="패스 66" d="M208.312 8.83h7.661v12.105h-7.661zm11.411 15.4V5.538H204.55v17.257a1.281 1.281 0 0 0 1.466 1.432z"/>
        <path data-name="패스 67" d="M247.91 23.209h-7.916v3.227h15.749v2.218h-15.749v7.193a1.269 1.269 0 0 0 1.436 1.432h18.9v-3.225h-16.647v-2.216h15.755V23.21H251.7v-2.54h13.113v-3.3h-29.935v3.3h13.032z"/>
        <path data-name="패스 68" d="M245.721 12.851a11.929 11.929 0 0 0 4.1-3.722 11.975 11.975 0 0 0 4.1 3.722 29.393 29.393 0 0 0 6.6 2.831l1.512-2.974a28.514 28.514 0 0 1-3.863-1.4 16.069 16.069 0 0 1-3.278-1.9 10.05 10.05 0 0 1-2.276-2.339 4.877 4.877 0 0 1-.857-2.747V3.263h-3.867v1.072a4.835 4.835 0 0 1-.859 2.747 10.18 10.18 0 0 1-2.27 2.339 16.109 16.109 0 0 1-3.284 1.9 28.707 28.707 0 0 1-3.863 1.4l1.5 2.974a29.339 29.339 0 0 0 6.608-2.831"/>
        <path data-name="패스 69" d="M293.019 16.387h4.834v-3.294h-4.834V3.572h-3.8v24.124h3.8z"/>
        <path data-name="패스 70" d="M293.979 36.443v-3.328h-15.744v-6.837h-3.8v8.735a1.265 1.265 0 0 0 1.432 1.43z"/>
        <path data-name="패스 71" d="M281.203 12.805a57.989 57.989 0 0 1-.647 4.118l3.619.358a34.354 34.354 0 0 0 .736-4.563c.177-1.759.263-3.752.263-6V5.286h-16.143v3.33h12.419a34.94 34.94 0 0 1-.247 4.186"/>
        <path data-name="패스 72" d="M278.573 23.179c1.132-.062 2.252-.139 3.366-.235s2.163-.225 3.149-.4a26.97 26.97 0 0 0 2.667-.571l-.533-3.117a30.411 30.411 0 0 1-4.424.772 63.994 63.994 0 0 1-4.6.3h-1.037V13.27h-3.8v6.658h-6.442v3.332h8.339c1.078 0 2.18-.028 3.314-.089"/>
    </g>
</svg>
